<svg width="62" height="86" viewBox="0 0 62 86" fill="none" xmlns="http://www.w3.org/2000/svg">
<rect width="62" height="86" fill="white"/>
<rect y="68" width="62" height="18" fill="white"/>
<rect x="10" y="74" width="36" height="5" rx="2.5" fill="#E0E0E0"/>
<rect y="51" width="62" height="17" fill="white"/>
<path d="M59 59.5003C59 63.0901 56.0899 66.0003 52.5 66.0003L1 66.0003V53.0003L52.5 53.0003C56.0899 53.0003 59 55.9104 59 59.5003Z" fill="#E0E0E0"/>
<rect x="10" y="57" width="36" height="5" rx="2.5" fill="white"/>
<rect y="34" width="62" height="17" fill="white"/>
<rect x="10" y="40" width="36" height="5" rx="2.5" fill="#E0E0E0"/>
<rect y="17" width="62" height="17" fill="white"/>
<rect x="10" y="23" width="36" height="5" rx="2.5" fill="#E0E0E0"/>
<rect width="62" height="17" fill="white"/>
<rect x="10" y="6" width="36" height="5" rx="2.5" fill="#E0E0E0"/>
<rect x="0.5" y="0.5" width="61" height="85" stroke="#E0E0E0"/>
</svg>
