<svg width="64" height="88" viewBox="0 0 64 88" fill="none" xmlns="http://www.w3.org/2000/svg">
<path d="M63 1.00145L0.968018 1.04742L1.03174 87.0244L63.0637 86.9784L63 1.00145Z" stroke="#E0E0E0"/>
<path d="M62.9998 0.999939H0.999756V86.9999H62.9998V0.999939Z" fill="white"/>
<path d="M62.9998 0.999939H0.999756V86.9999H62.9998V0.999939Z" fill="#E0E0E0"/>
<path d="M62.9998 68.9999H0.999756V86.9999H62.9998V68.9999Z" fill="white"/>
<path d="M44.4998 74.9999H13.4998C12.119 74.9999 10.9998 76.1192 10.9998 77.4999C10.9998 78.8807 12.119 79.9999 13.4998 79.9999H44.4998C45.8805 79.9999 46.9998 78.8807 46.9998 77.4999C46.9998 76.1192 45.8805 74.9999 44.4998 74.9999Z" fill="#E0E0E0"/>
<rect x="0.999756" y="51.9999" width="22" height="17" fill="white"/>
<path d="M4.99976 60.4999C4.99976 56.91 7.90991 53.9999 11.4998 53.9999H62.9998V66.9999H11.4998C7.90991 66.9999 4.99976 64.0898 4.99976 60.4999Z" fill="#E0E0E0"/>
<path d="M1 51H63V51C63 52.6569 61.6569 54 60 54H1V51Z" fill="white"/>
<path d="M1 70H63V70C63 68.3431 61.6569 67 60 67H1V70Z" fill="white"/>
<path d="M44.4998 57.9999H13.4998C12.119 57.9999 10.9998 59.1192 10.9998 60.4999C10.9998 61.8807 12.119 62.9999 13.4998 62.9999H44.4998C45.8805 62.9999 46.9998 61.8807 46.9998 60.4999C46.9998 59.1192 45.8805 57.9999 44.4998 57.9999Z" fill="white"/>
<path d="M62.9998 34.9999H0.999756V51.9999H62.9998V34.9999Z" fill="white"/>
<path d="M44.4998 40.9999H13.4998C12.119 40.9999 10.9998 42.1192 10.9998 43.4999C10.9998 44.8807 12.119 45.9999 13.4998 45.9999H44.4998C45.8805 45.9999 46.9998 44.8807 46.9998 43.4999C46.9998 42.1192 45.8805 40.9999 44.4998 40.9999Z" fill="#E0E0E0"/>
<path d="M62.9998 17.9999H0.999756V34.9999H62.9998V17.9999Z" fill="white"/>
<path d="M44.4998 23.9999H13.4998C12.119 23.9999 10.9998 25.1192 10.9998 26.4999C10.9998 27.8807 12.119 28.9999 13.4998 28.9999H44.4998C45.8805 28.9999 46.9998 27.8807 46.9998 26.4999C46.9998 25.1192 45.8805 23.9999 44.4998 23.9999Z" fill="#E0E0E0"/>
<path d="M62.9998 0.999939H0.999756V17.9999H62.9998V0.999939Z" fill="white"/>
<path d="M44.4998 6.99994H13.4998C12.119 6.99994 10.9998 8.11923 10.9998 9.49994C10.9998 10.8807 12.119 11.9999 13.4998 11.9999H44.4998C45.8805 11.9999 46.9998 10.8807 46.9998 9.49994C46.9998 8.11923 45.8805 6.99994 44.4998 6.99994Z" fill="#E0E0E0"/>
</svg>
